<svg version="1.1" id="Layer_1" xmlns="http://www.w3.org/2000/svg" xmlns:xlink="http://www.w3.org/1999/xlink" x="0px" y="0px"
	 width="100%" viewBox="0 0 1024 1024" enable-background="new 0 0 1024 1024" xml:space="preserve">
<path fill="#000000" opacity="1.000000" stroke="none" 
	d="
M187.000061,238.671661 
	C412.986237,238.672958 638.472412,238.673767 863.958557,238.678009 
	C875.607727,238.678223 883.888367,243.984955 887.415283,253.727356 
	C888.739502,257.385071 888.902161,261.242371 888.902466,265.062073 
	C888.912476,375.721924 889.203796,486.383240 888.691223,597.040833 
	C888.513733,635.367249 889.104370,673.683899 888.867676,712.004822 
	C888.836792,716.999146 888.651062,721.998840 888.340149,726.983704 
	C887.662537,737.847656 880.791748,744.297791 870.053711,744.291443 
	C781.892517,744.239685 693.731323,744.135010 605.570129,744.142273 
	C456.080750,744.154541 306.591400,744.235474 157.102020,744.292114 
	C144.321564,744.296936 137.619904,737.452698 137.615463,724.098206 
	C137.587082,638.603455 137.594742,553.108643 137.591370,467.613892 
	C137.588684,399.784698 137.904175,331.953003 137.364197,264.128113 
	C137.227600,246.969070 149.803406,237.405807 163.016434,238.548737 
	C170.789703,239.221130 178.668640,238.671753 187.000061,238.671661 
M166.088348,364.500000 
	C166.077927,440.490387 166.064438,516.480774 166.058334,592.471130 
	C166.055115,632.466125 166.094116,672.461182 166.023651,712.456055 
	C166.016541,716.488403 166.452377,719.538147 171.624496,718.712463 
	C172.599380,718.556885 173.620682,718.692688 174.620560,718.692688 
	C388.761047,718.690002 602.901489,718.687134 817.041992,718.684509 
	C829.207153,718.684387 841.376709,718.499390 853.535339,718.781006 
	C858.168823,718.888245 860.545227,717.708679 859.890198,712.738098 
	C859.782471,711.920654 859.905640,711.073975 859.905518,710.240845 
	C859.891968,566.091858 859.904785,421.942810 859.810425,277.793854 
	C859.802673,265.926727 861.767883,267.377502 849.577698,267.372406 
	C729.614075,267.322327 609.650452,267.363678 489.686829,267.361572 
	C384.033051,267.359711 278.379272,267.332794 172.725510,267.327789 
	C166.193375,267.327484 166.142014,267.371674 166.134766,274.011078 
	C166.102188,303.840729 166.101318,333.670349 166.088348,364.500000 
z"/>
<path fill="#000000" opacity="1.000000" stroke="none" 
	d="
M298.999878,773.406860 
	C229.844833,773.377991 161.189697,773.404541 92.534882,773.271362 
	C78.911072,773.244934 65.762146,770.675476 53.441040,764.427063 
	C49.566692,762.462280 47.404751,760.018555 47.870548,755.510132 
	C48.264362,751.698547 46.915855,747.647766 49.273670,743.648071 
	C53.408470,746.164612 52.119152,749.754211 51.854866,752.748230 
	C51.152115,760.709106 51.007915,760.696350 59.041267,760.705383 
	C59.874458,760.706299 60.707752,760.716003 61.540829,760.706543 
	C69.550888,760.615906 70.165581,759.875793 68.699913,752.098633 
	C67.257004,744.442261 68.555061,743.050964 76.098869,743.781250 
	C79.321785,744.093079 80.929390,745.684204 81.093361,748.849792 
	C81.127815,749.515076 81.154869,750.182251 81.145126,750.847961 
	C81.005608,760.374207 84.692986,763.896057 94.337303,762.312683 
	C103.460159,760.814880 112.580414,760.861023 121.739189,760.873779 
	C176.896088,760.950684 232.057571,760.618530 287.208130,761.246277 
	C320.156128,761.621277 353.084229,763.583008 386.027222,764.647522 
	C396.172058,764.975464 406.331696,765.281311 416.491821,764.339478 
	C422.620178,763.771362 428.819489,763.621155 434.949463,764.506104 
	C441.307709,765.423950 447.579834,764.069519 453.898071,764.063599 
	C492.556610,764.027161 531.215149,763.985535 569.873718,763.924866 
	C572.202209,763.921204 574.655518,764.177856 576.835571,763.557251 
	C583.704773,761.601868 590.456909,761.531860 597.533264,762.637390 
	C602.894531,763.474915 608.225098,760.895752 613.813660,760.906860 
	C686.300842,761.050476 758.788391,761.006042 831.275879,760.972351 
	C840.131165,760.968201 848.882629,761.583557 857.563782,763.521851 
	C864.987122,765.179382 872.062317,763.963745 879.550354,762.016235 
	C887.680847,759.901672 896.572693,759.533875 905.034424,762.830139 
	C908.560059,764.203430 912.414734,765.178284 916.177795,765.415955 
	C929.973999,766.287170 943.798767,766.741882 957.549194,764.690186 
	C959.322449,764.425598 961.260315,763.902771 962.678589,762.882996 
	C966.462402,760.162354 970.451965,760.599670 974.650146,761.237793 
	C974.772034,763.963379 972.541260,764.134094 971.067566,764.886414 
	C959.240845,770.924255 946.510986,773.261169 933.394470,773.278564 
	C849.242126,773.390259 765.089539,773.394470 680.937073,773.403687 
	C553.791321,773.417664 426.645599,773.406677 298.999878,773.406860 
z"/>
</svg>