<svg version="1.1" id="Layer_1" xmlns="http://www.w3.org/2000/svg" xmlns:xlink="http://www.w3.org/1999/xlink" x="0px" y="0px"
	 width="100%" viewBox="0 0 1024 1024" enable-background="new 0 0 1024 1024" xml:space="preserve">
<path fill="#000000" opacity="1.000000" stroke="none" 
	d="
M539.527588,869.419861 
	C538.040527,884.835022 534.024292,898.641479 522.087280,908.971191 
	C513.221069,916.643555 503.403290,919.900391 491.612701,917.002808 
	C428.733246,901.550232 365.822327,886.224976 302.892792,870.977295 
	C296.864716,869.516724 290.863495,867.646790 284.343445,869.863403 
	C279.440399,871.530334 275.298767,868.247009 271.645874,865.379211 
	C260.128448,856.336731 255.543610,843.696472 253.907669,829.711853 
	C252.453690,817.282898 255.253113,805.153076 256.978180,792.980591 
	C261.462006,761.342041 266.122437,729.728210 270.781036,698.114746 
	C274.203247,674.891418 277.759552,651.688049 281.209106,628.468750 
	C284.780365,604.430298 288.250824,580.376831 291.856964,556.343689 
	C293.207092,547.345947 294.815308,538.386963 296.305847,529.410278 
	C296.746185,529.473267 297.186523,529.536194 297.626862,529.599182 
	C292.386749,567.309265 287.146637,605.019348 281.906555,642.729431 
	C282.183990,642.767578 282.461426,642.805725 282.738861,642.843811 
	C306.784058,478.172455 330.829285,313.501068 354.800995,149.332993 
	C352.413177,153.334671 352.591003,158.895218 349.972473,164.139938 
	C348.293701,161.603424 349.416290,159.462524 349.779297,157.637741 
	C353.175781,140.564651 360.883820,125.966599 375.078278,115.368889 
	C380.963348,110.975037 387.631470,108.788338 395.113495,108.717278 
	C418.094238,108.499023 441.048798,107.448517 463.994720,106.176903 
	C466.658478,106.029297 470.124786,104.650223 470.877228,109.506668 
	C471.242157,111.861954 473.934540,111.036331 475.611084,111.027878 
	C488.776825,110.961510 501.945709,110.921082 515.106323,110.586090 
	C529.589783,110.217415 544.063232,109.471413 558.545227,109.022133 
	C575.197449,108.505516 591.880127,108.572472 608.502441,107.589012 
	C629.568054,106.342674 640.309753,122.299042 643.341064,136.743103 
	C645.598633,147.500504 643.291626,157.953430 641.781677,168.468628 
	C636.982605,201.888977 632.142517,235.303528 627.258728,268.711609 
	C623.097229,297.179047 618.824890,325.630280 614.654419,354.096405 
	C610.845703,380.093445 607.130615,406.104187 603.333069,432.102875 
	C598.429993,465.670654 593.463867,499.229248 588.566284,532.797852 
	C584.124512,563.241577 579.762329,593.696960 575.321167,624.140747 
	C570.088135,660.013123 564.776123,695.873962 559.557129,731.748352 
	C554.434021,766.963684 549.395081,802.191223 544.296509,837.410095 
	C542.771851,847.941345 541.171143,858.461548 539.527588,869.419861 
M360.429108,203.863007 
	C359.738678,208.634964 359.048767,213.406998 358.357758,218.178864 
	C354.165497,247.128189 349.979370,276.078430 345.779053,305.026581 
	C341.292542,335.947235 336.798950,366.866852 332.296448,397.785187 
	C328.511536,423.776031 324.708557,449.764282 320.915131,475.753906 
	C316.714081,504.536346 312.511078,533.318542 308.316040,562.101868 
	C304.815857,586.117371 301.331940,610.135254 297.829712,634.150452 
	C293.991364,660.469971 290.150482,686.789124 286.291870,713.105652 
	C282.408936,739.588135 278.342743,766.045166 274.684540,792.558533 
	C273.188110,803.404114 270.536957,814.148438 271.229828,825.251953 
	C271.975861,837.207520 278.388702,845.169617 289.903381,847.983337 
	C301.539642,850.826721 313.191101,853.608398 324.843872,856.383667 
	C381.490784,869.874878 438.152252,883.305481 494.775665,896.894653 
	C502.855286,898.833740 509.194183,896.338379 514.606445,890.641235 
	C519.358887,885.638550 521.685791,879.443970 522.674438,872.708984 
	C524.508972,860.211182 526.295227,847.706360 528.128357,835.208374 
	C531.962769,809.065674 535.836121,782.928589 539.653381,756.783325 
	C543.831543,728.166748 547.948303,699.541138 552.121643,670.923889 
	C556.294189,642.312195 560.514282,613.707458 564.693726,585.096802 
	C568.849426,556.648438 572.965088,528.194214 577.126587,499.746735 
	C581.287231,471.304749 585.510071,442.871826 589.655518,414.427643 
	C593.489380,388.121521 597.227295,361.801361 601.061951,335.495331 
	C604.896545,309.189423 608.808960,282.894806 612.668457,256.592499 
	C616.552917,230.119934 620.522522,203.659073 624.226929,177.161240 
	C625.513428,167.958572 627.796021,158.840927 627.612000,149.482117 
	C627.357361,136.535339 618.775513,127.281181 607.774536,127.634354 
	C598.950562,127.917633 590.124207,128.154114 581.297058,128.297943 
	C572.775513,128.436798 572.774353,128.373016 570.245300,136.462631 
	C566.105042,149.705414 557.546265,156.043396 543.760010,156.232162 
	C508.446503,156.715652 473.133667,157.251923 437.820374,157.751053 
	C430.157593,157.859360 425.235809,154.262375 423.024139,146.884613 
	C422.163177,144.012558 421.445526,141.063751 421.788239,138.027542 
	C422.294800,133.539749 420.136414,132.080017 415.934814,132.292603 
	C408.284363,132.679688 400.622284,133.104095 392.967560,133.061234 
	C385.932281,133.021835 380.416687,135.707535 375.849976,140.848969 
	C371.302734,145.968521 368.383118,151.885605 367.324829,158.622238 
	C365.003204,173.400574 362.820801,188.200790 360.429108,203.863007 
M256.328186,822.565491 
	C256.129669,827.152039 256.411102,831.657898 258.807007,835.814514 
	C258.064362,831.268677 257.321716,826.722900 256.328186,822.565491 
z"/>
<path fill="#000000" opacity="1.000000" stroke="none" 
	d="
M592.334595,617.455444 
	C594.706482,603.815796 595.774719,590.373840 599.512207,577.558838 
	C601.241577,577.358337 601.321106,579.037964 602.209106,579.162781 
	C609.122131,580.134705 607.443237,584.879028 606.770081,589.251160 
	C600.569397,629.520569 594.432434,669.799866 588.177673,710.060913 
	C583.379211,740.948120 578.416992,771.809875 573.566162,802.688965 
	C569.465271,828.794067 565.448792,854.912415 561.328003,881.014343 
	C560.361511,887.135925 558.261536,892.917175 555.446411,898.444153 
	C553.944641,901.392700 551.293640,904.467590 556.128662,906.582092 
	C555.798889,907.423706 555.747925,907.929443 555.555603,907.990723 
	C544.827087,911.405640 537.264221,920.677429 526.307312,923.720276 
	C521.457153,925.067261 516.670410,925.850525 511.639832,924.917542 
	C511.881378,923.528687 512.900513,923.696472 513.622498,923.491638 
	C536.408447,917.028625 547.728699,900.538879 551.505066,878.466064 
	C557.248535,844.895508 562.219727,811.192078 567.440613,777.532959 
	C574.267578,733.519226 581.007935,689.492065 587.810120,645.474487 
	C589.232605,636.269043 590.761841,627.080200 592.334595,617.455444 
z"/>
<path fill="#000000" opacity="1.000000" stroke="none" 
	d="
M540.477173,889.296936 
	C537.994934,894.366699 537.196960,900.051208 531.629150,902.830872 
	C534.927246,894.785767 538.870422,887.068115 541.670227,878.822266 
	C543.197205,882.564453 541.165527,885.636963 540.477173,889.296936 
z"/>
<path fill="#000000" opacity="1.000000" stroke="none" 
	d="
M642.353882,105.562378 
	C637.866089,107.327072 630.961426,105.965637 628.601685,102.624649 
	C633.834167,101.065643 638.012329,103.212791 642.353882,105.562378 
z"/>
</svg>